<?xml version="1.0" ?><!DOCTYPE svg  PUBLIC '-//W3C//DTD SVG 1.1//EN'  'http://www.w3.org/Graphics/SVG/1.1/DTD/svg11.dtd'><svg height="512px" id="icon_design" style="enable-background:new 0 0 512 512;" version="1.1" viewBox="0 0 512 512" width="512px" xml:space="preserve" xmlns="http://www.w3.org/2000/svg" xmlns:xlink="http://www.w3.org/1999/xlink"><style type="text/css"><![CDATA[
	.st0{fill:none;}
	.st1{fill:#336699;}
]]></style><g><g><path class="st1" d="M231.268,325.192h115.715c0.01,0,0.021,0,0.021,0c4.469,0,8.067-3.618,8.067-8.077     c0.03-4.469-3.618-8.088-8.087-8.088H231.268c-4.479-0.031-8.108,3.619-8.108,8.088c0,0.779,0.246,1.477,0.441,2.193     C224.574,322.691,227.557,325.192,231.268,325.192z"/><path class="st1" d="M434.12,199.012H212.694c-18.399,0-33.283,14.894-33.303,33.252l11.46,0.031h-11.46l0.01,34.163v17.19     l0.01,51.754v23.309c-0.153,0.871-0.164,1.568-0.02,1.875c0.01,0.094,0.01,0.165,0.01,0.236     c0.348,18.133,15.16,32.627,33.293,32.627H434.12c18.41,0,33.304-14.904,33.304-33.313V232.295     C467.403,213.905,452.53,199.012,434.12,199.012z M444.494,360.136c0,5.761-4.603,10.394-10.374,10.394H212.694     c-5.515-0.02-9.984-4.274-10.343-9.604v-33.877l-0.021-39.054h242.163V360.136z M444.494,247.239H202.331v-14.915     c0-5.77,4.653-10.434,10.363-10.404H434.12c5.74,0,10.374,4.635,10.374,10.375V247.239z"/><path class="st1" d="M330.418,180.951l-23.155-63.604c-4.951-13.52-17.671-21.945-31.273-21.915     c-3.865,0-7.698,0.667-11.419,2.03l-208.06,75.719c-13.51,4.899-21.925,17.672-21.925,31.273c0,3.803,0.646,7.667,2.04,11.389     v0.01l43.749,120.163c4.879,13.479,17.63,21.896,31.232,21.896c3.762,0,7.657-0.646,11.419-1.989l38.335-13.961l-0.03-51.733     l-43.092,15.684c-0.902,0.338-1.835,0.502-2.758,0.502c-3.311,0-6.406-2.06-7.595-5.32c-1.518-4.201,0.656-8.846,4.848-10.383     l48.597-17.682l-0.011-40.745c0-0.421,0.031-0.84,0.051-1.25c0.656-27.747,23.36-50.052,51.302-50.083H330.418z M132.076,250.673     l-24.242,8.815c-1.527,0.533-3.075,0.779-4.572,0.779c-5.454,0-10.578-3.342-12.485-8.733l-5.904-16.226     c-0.564-1.497-0.852-3.045-0.852-4.562c0-5.453,3.363-10.588,8.795-12.535l24.169-8.795c1.487-0.533,3.055-0.83,4.613-0.83     c5.412,0,10.517,3.372,12.505,8.764l5.905,16.247c0.563,1.507,0.82,3.055,0.799,4.571     C140.809,243.621,137.416,248.634,132.076,250.673z"/></g><rect class="st0" height="512" width="512"/></g></svg>